<?xml version="1.0" standalone="no"?>
<!DOCTYPE svg PUBLIC "-//W3C//DTD SVG 20010904//EN"
 "http://www.w3.org/TR/2001/REC-SVG-20010904/DTD/svg10.dtd">
<svg version="1.0" xmlns="http://www.w3.org/2000/svg"
 width="311.000000pt" height="287.000000pt" viewBox="0 0 311.000000 287.000000"
 preserveAspectRatio="xMidYMid meet">

<g transform="translate(0.000000,287.000000) scale(0.100000,-0.100000)"
fill="#000000" stroke="none">
<path d="M0 1435 l0 -1435 1555 0 1555 0 0 1435 0 1435 -1555 0 -1555 0 0
-1435z m898 1060 c1 -1 -4 -110 -13 -241 -8 -132 -15 -294 -15 -361 0 -193 5
-188 209 242 l174 365 112 0 c93 0 117 -3 135 -18 l22 -17 -197 -403 -196
-403 222 -602 c122 -331 225 -612 227 -624 l4 -23 -241 0 -241 0 -5 23 c-3 12
-39 222 -81 467 -41 245 -79 449 -84 453 -4 5 -18 7 -31 5 -24 -3 -24 -5 -26
-123 -2 -66 6 -277 15 -470 17 -317 17 -351 3 -363 -15 -12 -88 -12 -376 4
l-101 6 -17 83 c-15 72 -17 153 -17 616 0 498 15 1324 26 1378 l5 23 242 -7
c133 -4 243 -8 245 -10z m1499 -29 c150 -23 153 -23 210 -67 31 -24 60 -46 64
-49 4 -3 17 -102 29 -220 l23 -215 -37 -138 c-41 -155 -57 -178 -153 -218 -29
-12 -53 -24 -53 -28 0 -4 24 -15 53 -24 61 -19 81 -38 126 -120 26 -48 35 -80
48 -180 13 -105 14 -150 4 -327 -20 -361 -20 -359 -145 -396 -44 -13 -154 -34
-245 -47 -149 -22 -192 -24 -422 -19 l-256 4 -7 791 c-3 436 -3 901 0 1035 l7
242 301 0 c264 0 320 -3 453 -24z"/>
<path d="M1910 1988 c0 -123 4 -171 21 -244 l22 -91 86 -10 c77 -8 105 -7 188
12 16 4 27 21 43 71 20 58 22 79 16 162 -7 87 -11 102 -47 163 -48 83 -63 89
-215 89 l-114 0 0 -152z"/>
<path d="M1896 1153 c-3 -114 -7 -253 -8 -308 l-2 -100 64 -8 c36 -4 93 -5
127 -2 l62 6 42 77 42 76 -6 115 c-7 153 -32 238 -82 283 -54 48 -71 55 -156
62 l-76 7 -7 -208z"/>
</g>
</svg>
